<svg width="120" height="30" viewBox="0 0 120 30" fill="none" xmlns="http://www.w3.org/2000/svg">
<g clip-path="url(#clip0_8973_38953)">
<path d="M11.2111 1.75149C11.2111 2.252 11.0124 2.73201 10.659 3.08593C10.3055 3.43985 9.82607 3.63872 9.32618 3.63872C8.82629 3.63872 8.34688 3.43985 7.9934 3.08593C7.63993 2.73201 7.44141 2.252 7.44141 1.75149C7.44141 1.25097 7.63993 0.770962 7.9934 0.417045C8.34688 0.0631286 8.82629 -0.135742 9.32618 -0.135742C9.82607 -0.135742 10.3055 0.0631286 10.659 0.417045C11.0124 0.770962 11.2111 1.25097 11.2111 1.75149Z" fill="#EDF1F6"/>
<path d="M18.8146 1.75149C18.8146 2.252 18.6159 2.73201 18.2625 3.08593C17.909 3.43985 17.4296 3.63872 16.9297 3.63872C16.4298 3.63872 15.9504 3.43985 15.5969 3.08593C15.2434 2.73201 15.0449 2.252 15.0449 1.75149C15.0449 1.25097 15.2434 0.770962 15.5969 0.417045C15.9504 0.0631286 16.4298 -0.135742 16.9297 -0.135742C17.4296 -0.135742 17.909 0.0631286 18.2625 0.417045C18.6159 0.770962 18.8146 1.25097 18.8146 1.75149Z" fill="#EDF1F6"/>
<path d="M15.0622 8.31601C15.0654 8.69389 14.9563 9.06417 14.7486 9.37972C14.541 9.69527 14.2442 9.94175 13.8961 10.0879C13.5481 10.234 13.1645 10.2731 12.7941 10.2001C12.4238 10.1272 12.0836 9.94561 11.8167 9.6784C11.5498 9.41119 11.3683 9.07051 11.2955 8.69973C11.2227 8.32894 11.2617 7.94486 11.4076 7.59636C11.5536 7.24786 11.7998 6.9507 12.115 6.74279C12.4301 6.53487 12.8 6.42554 13.1774 6.42878C13.6759 6.43307 14.1529 6.63328 14.5055 6.98628C14.858 7.33927 15.0579 7.81682 15.0622 8.31601Z" fill="#EDF1F6"/>
<path d="M7.5549 8.31594C7.5549 8.56377 7.50607 8.80914 7.41135 9.0381C7.31663 9.26706 7.17783 9.47514 7.00281 9.65038C6.82778 9.82562 6.61997 9.9646 6.39129 10.0594C6.16261 10.1543 5.91755 10.2032 5.67003 10.2032C5.42251 10.2032 5.17745 10.1543 4.94877 10.0594C4.72009 9.9646 4.51228 9.82562 4.33725 9.65038C4.16223 9.47514 4.02343 9.26706 3.92871 9.0381C3.83399 8.80914 3.78516 8.56377 3.78516 8.31594C3.78516 8.06811 3.83399 7.82275 3.92871 7.59378C4.02343 7.36482 4.16223 7.15674 4.33725 6.9815C4.51228 6.80626 4.72009 6.66728 4.94877 6.57244C5.17745 6.4776 5.42251 6.42871 5.67003 6.42871C5.91755 6.42871 6.16261 6.4776 6.39129 6.57244C6.61997 6.66728 6.82778 6.80626 7.00281 6.9815C7.17783 7.15674 7.31663 7.36482 7.41135 7.59378C7.50607 7.82275 7.5549 8.06811 7.5549 8.31594Z" fill="#EDF1F6"/>
<path d="M22.5861 8.31594C22.5861 8.81645 22.3874 9.29647 22.034 9.65038C21.6805 10.0043 21.2011 10.2032 20.7012 10.2032C20.2013 10.2032 19.7219 10.0043 19.3684 9.65038C19.0149 9.29647 18.8164 8.81645 18.8164 8.31594C18.8164 7.81543 19.0149 7.33542 19.3684 6.9815C19.7219 6.62758 20.2013 6.42871 20.7012 6.42871C21.2011 6.42871 21.6805 6.62758 22.034 6.9815C22.3874 7.33542 22.5861 7.81543 22.5861 8.31594Z" fill="#CECECE"/>
<path d="M30.1251 8.31594C30.1251 8.68919 30.0146 9.05408 29.8075 9.36442C29.6004 9.67477 29.306 9.9166 28.9616 10.0594C28.6172 10.2023 28.2382 10.2397 27.8726 10.1669C27.507 10.0941 27.1712 9.91431 26.9076 9.65038C26.644 9.38645 26.4644 9.05021 26.3917 8.68413C26.319 8.31805 26.3563 7.93862 26.4989 7.59378C26.6416 7.24894 26.8832 6.95419 27.1932 6.74682C27.5031 6.53945 27.8676 6.42871 28.2404 6.42871C28.7402 6.42871 29.2197 6.62758 29.5731 6.9815C29.9266 7.33542 30.1251 7.81543 30.1251 8.31594Z" fill="#EDF1F6"/>
<path d="M26.338 1.75149C26.338 2.252 26.1395 2.73201 25.786 3.08593C25.4325 3.43985 24.9531 3.63872 24.4532 3.63872C23.9533 3.63872 23.4739 3.43985 23.1205 3.08593C22.767 2.73201 22.5684 2.252 22.5684 1.75149C22.5684 1.25097 22.767 0.770962 23.1205 0.417045C23.4739 0.0631286 23.9533 -0.135742 24.4532 -0.135742C24.9531 -0.135742 25.4325 0.0631286 25.786 0.417045C26.1395 0.770962 26.338 1.25097 26.338 1.75149Z" fill="#EDF1F6"/>
<path d="M11.2111 14.8794C11.2111 15.2527 11.1006 15.6176 10.8935 15.9279C10.6863 16.2382 10.392 16.4801 10.0475 16.6229C9.70314 16.7657 9.32418 16.8032 8.95856 16.7304C8.59294 16.6576 8.25701 16.4778 7.99341 16.2139C7.72981 15.9499 7.55036 15.6137 7.47763 15.2476C7.4049 14.8815 7.44221 14.5021 7.58487 14.1573C7.72753 13.8124 7.96916 13.5177 8.27912 13.3103C8.58908 13.1029 8.95341 12.9922 9.32619 12.9922C9.82608 12.9922 10.3055 13.1911 10.659 13.545C11.0124 13.8989 11.2111 14.3789 11.2111 14.8794Z" fill="#CECECE"/>
<path d="M3.76973 14.8794C3.76973 15.2527 3.65913 15.6176 3.45202 15.9279C3.24491 16.2382 2.95052 16.4801 2.60612 16.6229C2.26171 16.7657 1.88275 16.8032 1.51713 16.7304C1.1515 16.6576 0.81568 16.4778 0.552081 16.2139C0.288482 15.9499 0.108923 15.6137 0.0361966 15.2476C-0.0365301 14.8815 0.000876363 14.5021 0.143535 14.1573C0.286194 13.8124 0.527724 13.5177 0.837683 13.3103C1.14764 13.1029 1.51207 12.9922 1.88486 12.9922C2.38475 12.9922 2.86416 13.1911 3.21763 13.545C3.57111 13.8989 3.76973 14.3789 3.76973 14.8794Z" fill="#EDF1F6"/>
<path d="M18.8146 14.8794C18.8146 15.2527 18.704 15.6176 18.4969 15.9279C18.2898 16.2382 17.9955 16.4801 17.6511 16.6229C17.3067 16.7657 16.9276 16.8032 16.562 16.7304C16.1964 16.6576 15.8605 16.4778 15.5969 16.2139C15.3333 15.9499 15.1539 15.6137 15.0811 15.2476C15.0084 14.8815 15.0457 14.5021 15.1884 14.1573C15.331 13.8124 15.5726 13.5177 15.8825 13.3103C16.1925 13.1029 16.5569 12.9922 16.9297 12.9922C17.4296 12.9922 17.909 13.1911 18.2625 13.545C18.616 13.8989 18.8146 14.3789 18.8146 14.8794Z" fill="#EDF1F6"/>
<path d="M15.0622 21.4439C15.0654 21.8218 14.9563 22.1921 14.7486 22.5076C14.541 22.8232 14.2442 23.0697 13.8961 23.2158C13.5481 23.3619 13.1645 23.401 12.7941 23.3281C12.4238 23.2551 12.0836 23.0735 11.8167 22.8063C11.5498 22.5391 11.3683 22.1984 11.2955 21.8277C11.2227 21.4569 11.2617 21.0728 11.4076 20.7243C11.5536 20.3758 11.7998 20.0786 12.115 19.8707C12.4301 19.6628 12.8 19.5535 13.1774 19.5567C13.6773 19.5567 14.1567 19.7556 14.5102 20.1095C14.8636 20.4634 15.0622 20.9434 15.0622 21.4439Z" fill="#EDF1F6"/>
<path d="M7.55482 21.4439C7.55482 21.8171 7.44421 22.182 7.2371 22.4924C7.02999 22.8027 6.73561 23.0445 6.3912 23.1874C6.04679 23.3302 5.66783 23.3677 5.30221 23.2948C4.93659 23.222 4.60076 23.0422 4.33716 22.7783C4.07356 22.5144 3.89411 22.1781 3.82138 21.8121C3.74865 21.446 3.78596 21.0666 3.92862 20.7217C4.07128 20.3769 4.31281 20.0821 4.62277 19.8748C4.93273 19.6674 5.29716 19.5566 5.66994 19.5566C6.16983 19.5566 6.64924 19.7555 7.00272 20.1094C7.35619 20.4633 7.55482 20.9434 7.55482 21.4439Z" fill="#EDF1F6"/>
<path d="M22.5861 21.4439C22.5861 21.8171 22.4756 22.182 22.2684 22.4924C22.0613 22.8027 21.767 23.0445 21.4225 23.1874C21.0781 23.3302 20.6992 23.3677 20.3336 23.2948C19.9679 23.222 19.632 23.0422 19.3684 22.7783C19.1048 22.5144 18.9254 22.1781 18.8526 21.8121C18.7799 21.446 18.8172 21.0666 18.9599 20.7217C19.1025 20.3769 19.3442 20.0821 19.6541 19.8748C19.9641 19.6674 20.3284 19.5566 20.7012 19.5566C21.2011 19.5566 21.6805 19.7555 22.034 20.1094C22.3874 20.4633 22.5861 20.9434 22.5861 21.4439Z" fill="#CECECE"/>
<path d="M30.1251 21.4439C30.1251 21.9444 29.9266 22.4244 29.5731 22.7783C29.2196 23.1322 28.7402 23.3311 28.2403 23.3311C27.7405 23.3311 27.261 23.1322 26.9076 22.7783C26.5541 22.4244 26.3555 21.9444 26.3555 21.4439C26.3555 20.9434 26.5541 20.4633 26.9076 20.1094C27.261 19.7555 27.7405 19.5566 28.2403 19.5566C28.7402 19.5566 29.2196 19.7555 29.5731 20.1094C29.9266 20.4633 30.1251 20.9434 30.1251 21.4439Z" fill="#EDF1F6"/>
<path d="M26.338 14.8794C26.338 15.2527 26.2275 15.6176 26.0204 15.9279C25.8133 16.2382 25.5189 16.4801 25.1745 16.6229C24.8301 16.7657 24.4511 16.8032 24.0855 16.7304C23.7199 16.6576 23.3841 16.4778 23.1205 16.2139C22.8569 15.9499 22.6773 15.6137 22.6046 15.2476C22.5319 14.8815 22.5692 14.5021 22.7118 14.1573C22.8545 13.8124 23.0961 13.5177 23.4061 13.3103C23.716 13.1029 24.0805 12.9922 24.4532 12.9922C24.9531 12.9922 25.4325 13.1911 25.786 13.545C26.1395 13.8989 26.338 14.3789 26.338 14.8794Z" fill="#EDF1F6"/>
<path d="M33.8947 14.8794C33.8947 15.1272 33.8459 15.3726 33.7512 15.6016C33.6565 15.8305 33.5177 16.0386 33.3427 16.2139C33.1676 16.3891 32.9598 16.5281 32.7311 16.6229C32.5025 16.7178 32.2574 16.7666 32.0099 16.7666C31.7624 16.7666 31.5173 16.7178 31.2886 16.6229C31.0599 16.5281 30.8521 16.3891 30.6771 16.2139C30.5021 16.0386 30.3633 15.8305 30.2686 15.6016C30.1738 15.3726 30.125 15.1272 30.125 14.8794C30.125 14.3789 30.3236 13.8989 30.6771 13.545C31.0306 13.1911 31.51 12.9922 32.0099 12.9922C32.5098 12.9922 32.9892 13.1911 33.3427 13.545C33.6961 13.8989 33.8947 14.3789 33.8947 14.8794Z" fill="#EDF1F6"/>
<path d="M11.2111 28.0083C11.2111 28.3816 11.1006 28.7465 10.8935 29.0568C10.6863 29.3672 10.392 29.609 10.0475 29.7518C9.70314 29.8947 9.32418 29.9321 8.95856 29.8593C8.59294 29.7865 8.25701 29.6067 7.99341 29.3428C7.72981 29.0788 7.55036 28.7426 7.47763 28.3765C7.4049 28.0104 7.44221 27.631 7.58487 27.2862C7.72753 26.9413 7.96916 26.6466 8.27912 26.4392C8.58908 26.2318 8.95341 26.1211 9.32619 26.1211C9.82608 26.1211 10.3055 26.32 10.659 26.6739C11.0124 27.0278 11.2111 27.5078 11.2111 28.0083Z" fill="#EDF1F6"/>
<path d="M18.8146 28.0083C18.8146 28.3816 18.704 28.7465 18.4969 29.0568C18.2898 29.3672 17.9955 29.609 17.6511 29.7518C17.3067 29.8947 16.9276 29.9321 16.562 29.8593C16.1964 29.7865 15.8605 29.6067 15.5969 29.3428C15.3333 29.0788 15.1539 28.7426 15.0811 28.3765C15.0084 28.0104 15.0457 27.631 15.1884 27.2862C15.331 26.9413 15.5726 26.6466 15.8825 26.4392C16.1925 26.2318 16.5569 26.1211 16.9297 26.1211C17.4296 26.1211 17.909 26.32 18.2625 26.6739C18.616 27.0278 18.8146 27.5078 18.8146 28.0083Z" fill="#EDF1F6"/>
<path d="M26.338 28.0083C26.338 28.3816 26.2275 28.7465 26.0204 29.0568C25.8133 29.3672 25.5189 29.609 25.1745 29.7518C24.8301 29.8947 24.4511 29.9321 24.0855 29.8593C23.7199 29.7865 23.3841 29.6067 23.1205 29.3428C22.8569 29.0788 22.6773 28.7426 22.6046 28.3765C22.5319 28.0104 22.5692 27.631 22.7118 27.2862C22.8545 26.9413 23.0961 26.6466 23.4061 26.4392C23.716 26.2318 24.0805 26.1211 24.4532 26.1211C24.9531 26.1211 25.4325 26.32 25.786 26.6739C26.1395 27.0278 26.338 27.5078 26.338 28.0083Z" fill="#EDF1F6"/>
<path d="M45.2461 -0.00986107H48.8211L57.0789 10.8411V-0.00986107H60.9057V17.6135H57.6076L49.0729 6.41008V17.6135H45.2461V-0.00986107Z" fill="white"/>
<path d="M74.1998 -0.135742H77.7748L85.3277 17.6135H81.2743L79.663 13.6608H72.2108L70.5996 17.6135H66.6469L74.1998 -0.135742ZM78.2783 10.2369L75.9369 4.52186L73.5955 10.2369H78.2783Z" fill="white"/>
<path d="M91.0688 -0.00986107H95.2481L99.8805 7.44231L104.513 -0.00986107H108.692V17.6135H104.84V6.10797L99.8805 13.6357H99.7798L94.8704 6.1835V17.6135H91.0688V-0.00986107Z" fill="white"/>
<path d="M116.123 -0.00986107H120V17.6135H116.123V-0.00986107Z" fill="white"/>
<path d="M65.2656 23.788H69.6458V24.9246H66.5349V26.1026H69.2725V27.2391H66.5349V28.4586H69.6873V29.5951H65.2656V23.788Z" fill="white"/>
<path d="M73.4032 26.6418L71.462 23.788H72.9552L74.1664 25.6712L75.4025 23.788H76.8542L74.913 26.6252L76.9372 29.5951H75.444L74.1415 27.6041L72.8308 29.5951H71.379L73.4032 26.6418Z" fill="white"/>
<path d="M81.1981 29.6947C80.7722 29.6947 80.3768 29.6172 80.0118 29.4624C79.6468 29.3075 79.3315 29.0974 79.0661 28.8319C78.8006 28.5609 78.5932 28.2429 78.4439 27.8779C78.2945 27.5129 78.2199 27.1229 78.2199 26.7082V26.6916C78.2199 26.2768 78.2945 25.8896 78.4439 25.5301C78.5932 25.1651 78.8006 24.8471 79.0661 24.5761C79.3315 24.2996 79.6495 24.0839 80.0201 23.9291C80.3906 23.7687 80.7999 23.6885 81.2479 23.6885C81.5189 23.6885 81.765 23.7106 81.9862 23.7548C82.2129 23.7991 82.4176 23.8599 82.6001 23.9374C82.7826 24.0148 82.9513 24.1088 83.1061 24.2194C83.261 24.33 83.4048 24.4517 83.5375 24.5844L82.7245 25.5219C82.4978 25.3172 82.2655 25.1568 82.0277 25.0407C81.7954 24.9246 81.5327 24.8665 81.2396 24.8665C80.9962 24.8665 80.7695 24.9135 80.5593 25.0075C80.3547 25.1015 80.1777 25.2315 80.0284 25.3974C79.879 25.5633 79.7629 25.7569 79.6799 25.9781C79.597 26.1938 79.5555 26.4261 79.5555 26.675V26.6916C79.5555 26.9404 79.597 27.1755 79.6799 27.3967C79.7629 27.6179 79.8763 27.8115 80.0201 27.9774C80.1694 28.1433 80.3464 28.2761 80.551 28.3756C80.7612 28.4696 80.9907 28.5166 81.2396 28.5166C81.5714 28.5166 81.8507 28.4558 82.0774 28.3341C82.3097 28.2125 82.5392 28.0466 82.766 27.8364L83.579 28.6577C83.4297 28.8181 83.2748 28.9619 83.1144 29.0891C82.954 29.2163 82.7771 29.3269 82.5835 29.4209C82.3954 29.5094 82.1881 29.5757 81.9613 29.62C81.7345 29.6698 81.4801 29.6947 81.1981 29.6947Z" fill="white"/>
<path d="M85.5972 23.788H86.8748V26.086H89.2308V23.788H90.5083V29.5951H89.2308V27.264H86.8748V29.5951H85.5972V23.788Z" fill="white"/>
<path d="M94.8866 23.7465H96.0646L98.5533 29.5951H97.2177L96.6868 28.2927H94.2312L93.7003 29.5951H92.3978L94.8866 23.7465ZM96.2305 27.1644L95.459 25.2813L94.6875 27.1644H96.2305Z" fill="white"/>
<path d="M100.445 23.788H101.623L104.344 27.3635V23.788H105.605V29.5951H104.518L101.706 25.9035V29.5951H100.445V23.788Z" fill="white"/>
<path d="M110.79 29.6947C110.337 29.6947 109.922 29.62 109.546 29.4707C109.175 29.3213 108.855 29.1139 108.584 28.8485C108.318 28.583 108.111 28.2678 107.961 27.9028C107.812 27.5377 107.737 27.1395 107.737 26.7082V26.6916C107.737 26.2768 107.812 25.8896 107.961 25.5301C108.116 25.1651 108.329 24.8471 108.6 24.5761C108.871 24.2996 109.192 24.0839 109.563 23.9291C109.933 23.7687 110.34 23.6885 110.782 23.6885C111.042 23.6885 111.277 23.7078 111.487 23.7465C111.703 23.7797 111.902 23.8295 112.084 23.8959C112.267 23.9622 112.438 24.0452 112.599 24.1447C112.759 24.2443 112.914 24.3577 113.063 24.4849L112.259 25.4555C112.148 25.3615 112.037 25.2785 111.927 25.2066C111.816 25.1347 111.7 25.0739 111.578 25.0241C111.462 24.9743 111.335 24.9356 111.197 24.908C111.059 24.8803 110.906 24.8665 110.741 24.8665C110.508 24.8665 110.29 24.9163 110.085 25.0158C109.886 25.1098 109.709 25.2398 109.554 25.4057C109.405 25.5661 109.286 25.7569 109.198 25.9781C109.115 26.1938 109.073 26.4261 109.073 26.675V26.6916C109.073 26.957 109.115 27.2031 109.198 27.4299C109.286 27.6511 109.408 27.8447 109.563 28.0106C109.723 28.1765 109.908 28.3065 110.118 28.4005C110.334 28.489 110.572 28.5332 110.832 28.5332C111.307 28.5332 111.708 28.4171 112.035 28.1848V27.3552H110.749V26.2519H113.271V28.7738C112.972 29.0282 112.615 29.2467 112.201 29.4292C111.791 29.6062 111.321 29.6947 110.79 29.6947Z" fill="white"/>
<path d="M115.496 23.788H119.876V24.9246H116.765V26.1026H119.502V27.2391H116.765V28.4586H119.917V29.5951H115.496V23.788Z" fill="white"/>
<path d="M45.2461 28.6943H60.8622V29.6954H45.2461V28.6943Z" fill="white"/>
</g>
<defs>
<clipPath id="clip0_8973_38953">
<rect width="120" height="30" fill="white"/>
</clipPath>
</defs>
</svg>
