<svg xmlns="http://www.w3.org/2000/svg" viewBox="0 0 261.38 230.58">
    <defs>
        <style>.cls-1{fill:#00b3c4;}.cls-2{fill:#dcdcdc;}</style>
    </defs>
    <title>Symbol White_1</title>
    <g id="Layer_2" data-name="Layer 2">
        <g id="Layer_1-2" data-name="Layer 1">
            <path class="cls-1" d="M86.95,14.54A14.54,14.54,0,1,1,72.41,0,14.54,14.54,0,0,1,86.95,14.54"/>
            <path class="cls-1" d="M145.05,14.54A14.54,14.54,0,1,1,130.52,0a14.54,14.54,0,0,1,14.54,14.54"/>
            <path class="cls-1" d="M116.1,64.74A14.53,14.53,0,1,1,101.57,50.2,14.54,14.54,0,0,1,116.1,64.74"/>
            <path class="cls-1" d="M58.28,64.74A14.53,14.53,0,1,1,43.74,50.2,14.53,14.53,0,0,1,58.28,64.74"/>
            <path class="cls-2" d="M174.15,64.74A14.53,14.53,0,1,1,159.62,50.2a14.54,14.54,0,0,1,14.53,14.54"/>
            <path class="cls-1" d="M232.31,64.74A14.53,14.53,0,1,1,217.78,50.2a14.54,14.54,0,0,1,14.53,14.54"/>
            <path class="cls-1" d="M203.1,14.54A14.53,14.53,0,1,1,188.57,0,14.54,14.54,0,0,1,203.1,14.54"/>
            <path class="cls-2" d="M86.95,115.06a14.54,14.54,0,1,1-14.54-14.53,14.54,14.54,0,0,1,14.54,14.53"/>
            <path class="cls-1" d="M29.07,115.06a14.54,14.54,0,1,1-14.54-14.53,14.54,14.54,0,0,1,14.54,14.53"/>
            <path class="cls-1" d="M145.05,115.06a14.54,14.54,0,1,1-14.54-14.53,14.54,14.54,0,0,1,14.54,14.53"/>
            <path class="cls-1" d="M116.1,165.27a14.53,14.53,0,1,1-14.54-14.53,14.54,14.54,0,0,1,14.54,14.53"/>
            <path class="cls-1" d="M58.28,165.27a14.53,14.53,0,1,1-14.53-14.53,14.53,14.53,0,0,1,14.53,14.53"/>
            <path class="cls-2" d="M174.15,165.27a14.53,14.53,0,1,1-14.53-14.53,14.54,14.54,0,0,1,14.53,14.53"/>
            <path class="cls-1" d="M232.31,165.27a14.53,14.53,0,1,1-14.53-14.53,14.54,14.54,0,0,1,14.53,14.53"/>
            <path class="cls-1" d="M203.1,115.06a14.53,14.53,0,1,1-14.54-14.53,14.54,14.54,0,0,1,14.54,14.53"/>
            <path class="cls-1" d="M261.38,115.06a14.54,14.54,0,1,1-14.54-14.53,14.54,14.54,0,0,1,14.54,14.53"/>
            <path class="cls-1" d="M86.95,216a14.54,14.54,0,1,1-14.54-14.54A14.54,14.54,0,0,1,86.95,216"/>
            <path class="cls-1" d="M145.05,216a14.54,14.54,0,1,1-14.54-14.54A14.53,14.53,0,0,1,145.05,216"/>
            <path class="cls-1" d="M203.1,216a14.53,14.53,0,1,1-14.54-14.54A14.54,14.54,0,0,1,203.1,216"/>
        </g>
    </g>
</svg>